<?xml version="1.0" encoding="UTF-8"?>
<svg id="Capa_1" data-name="Capa 1" xmlns="http://www.w3.org/2000/svg" viewBox="0 0 284.24 322.05">
  <defs>
    <style>
      .cls-1 {
        stroke-width: 0px;
      }
    </style>
  </defs>
  <path class="cls-1" d="m161.34,292.94c3.72-4.05,5.65-8.05,7.35-12.18,1.28-3.1,2.97-6.3,6.86-4.58,3.87,1.71,2.63,5.25,1.36,8.24-2.62,6.16-5.72,12.08-10.93,16.48-1.77,1.49-2.36,3.03-2.07,5.18.32,2.36-.21,4.67-.91,6.88-3.07,9.64-12.16,12.07-19.47,5.14-7.35-6.97-10.98-16.09-12.1-25.7-.9-7.75-4.83-12.34-10.73-16.19-.28-.18-.56-.35-.84-.53-3.49-2.26-6.73-5.7-10.52-6.47-4.27-.87-6.33,4.47-9.71,6.62-13.97,8.84-29.24,10.85-45.09,7.77-27.96-5.43-45.89-22.09-53.46-49.64-2.51-9.12-.78-12.18,7.74-16.06,12.05-5.48,24.26-10.5,37.79-9.67,18.39,1.13,35.22,6.45,48.73,19.87,7.83,7.78,12.74,16.96,14.28,27.9.29,2.06.63,3.83,2.78,4.87,5.7,2.78,10.73,6.63,15.64,10.38,1.63-.45,1.18-1.64,1.17-2.53-.1-11.19.87-22.29,3.31-33.21.74-3.28.09-5.68-2.14-8.09-2.25-2.43-4.37-5.05-6.15-7.84-1.85-2.91-2.16-6.46,1.04-8.41,3.47-2.12,4.8,1.4,6.35,3.69,1.19,1.75,1.31,4.12,3.57,5.88,4.08-11.06,5.61-22.71,10.98-33.75-13.21,3.95-24.82,9.75-35.92,16.7-3.66,2.29-7.43,4.45-11.34,6.26-6.59,3.04-11.11-.14-10.9-7.6.26-9.37,3.72-17.83,7.76-26.1.56-1.14,1.12-2.28,1.87-3.8-6.19-.65-12-.06-17.56-2.31-12.21-4.97-20.53-14.06-26.73-25.16-4.79-8.58-8.15-17.8-9.7-27.63-.59-3.74-.37-6.96,2.77-9.45,3.11-2.46,6.22-1.41,9.4-.07,5.61,2.38,10.99,5.22,16.63,8.09-5.83-13.05-4.5-27.14-7.05-40.57-1.1-5.77-3.43-11.1-5.47-16.55-4.15-11.1-.37-18.2,11.25-19.65,6.46-.81,10.36-1.89,11.31-9.8,1.03-8.58,8.15-13.39,16.9-14.39,7.33-.84,14.64-.65,21.86.79,2.99.59,4.52.37,5.72-3.12,3.76-10.93,16.92-15.2,27.72-9.06,2.93,1.67,4.62,1.56,7.35-.39,9.78-6.99,23.5-1.82,25.95,9.85.77,3.65,1.92,3.14,4.57,2.36,8.01-2.36,16.15-4.14,24.57-2.35,9.63,2.04,15.25,8.54,14.92,18.31-.14,4.22,1.37,5.04,5.05,5.56,12.96,1.82,18.51,9.37,13.78,21.31-5.97,15.07-6.17,30.87-8.64,46.4-.69,4.3-1.84,8.41-3.94,13.37,4.34-2.61,7.87-4.77,11.45-6.86,3.02-1.76,6.17-3.31,9.56-4.22,5.44-1.45,8.88.97,9.34,6.47,1.54,18.54-14.97,46.34-32.14,54.07-1.17.53-2.46.81-4.4,1.44,2.51,1.49,4.53,2.71,6.57,3.9,2.7,1.57,4.95,3.34,4.68,6.97-.26,3.48-2.33,5.53-5.27,6.61-12.6,4.61-25.56,7.61-39.05,6.18-8.76-.93-17.41-2.81-25.29-8.69-.56,3.58-1,6.75-1.55,9.9-.28,1.63-.63,3.27-1.16,4.83-.84,2.48-2.62,4.07-5.31,3.38-2.49-.64-3.15-2.89-2.84-5.19.56-4.28,1.44-8.52,1.99-12.81.23-1.74,1.1-4.3-.58-5.09-1.95-.91-3.29,1.58-4.7,2.83-2.19,1.94-3.14,4.69-4.16,7.31-9.44,24.12-16.67,48.82-17.76,74.88-.61,14.57.82,28.95,7.73,42.23.23.44.41.92.7,1.32,1.7,2.28,2.74,6.47,6.23,5.27,3.91-1.35,3.14-5.58,2.22-8.73-3.75-12.88-5.84-25.97-5.36-39.4.52-14.9,3.25-29.4,8.12-43.49.16-.47.39-.92.55-1.39.92-2.74,2.73-4.49,5.62-3.41,2.6.97,2.78,3.31,2.04,5.88-2.04,7.13-3.93,14.31-6.2,22.64,9.72-6.97,19.1-11.74,29.66-13.89,1.31-.27,1.79-1.29,2.45-2.27,12.56-18.76,36.84-26.03,57.72-17.31,13.58,5.68,24.56,14.5,32.56,26.93,4.11,6.39,3.25,10.07-2.64,14.98-12.81,10.66-26.9,18.11-44.06,16.82-19.76-1.49-36.18-8.73-44.2-28.6-.83-2.07-1.87-2.19-3.81-1.58-10,3.15-18.88,8.21-26.56,15.34-.93.86-1.94,2.16-2.01,3.32-.71,11.29-.9,22.56,2.93,34.38Zm-49.85-134.32c-5.06-2.74-9.98-4.93-13.23-9.4-1.4-1.92-1.78-4.11-.07-5.96,1.75-1.89,3.9-1.48,5.89-.18.97.64,1.94,1.3,2.82,2.05,5.19,4.45,11.17,6.96,17.89,8.21,8.33,1.54,16.66,1.22,24.83-.19,9.2-1.59,18.05,1.59,27.2.82,29.07-2.45,49.75-19.89,56.31-48.21,1.8-7.79,2.64-15.71,2.99-23.69.39-8.77,3.48-16.89,5.91-25.18,2.2-7.51.55-10.06-7.13-11.38-5.33-.92-10.66-.32-15.9.59-22.1,3.81-41.07,13.1-54.71,31.63-1.74,2.37-2.27,4.24-.69,7.09,2.08,3.75,3.85,7.79,4.37,12.14.37,3.06-.4,6.06-3.79,6.63-3.19.53-4.49-2.02-5.19-4.84-1.46-5.83-3.3-11.52-6.72-16.55-18.72-27.53-45.98-36.15-77.59-34.58-6.92.34-8.41,3.27-5.5,9.73,4.96,11,6.72,22.53,7.07,34.45.32,11.04,3.67,21.24,9.54,30.61.88,1.41,1.73,2.84,2.56,4.28,1.05,1.83.79,3.57-.69,5-1.5,1.45-3.25,1.53-5.05.51-1.15-.66-2.26-1.4-3.42-2.06-8.34-4.69-16.42-9.9-26.39-13.3,3.81,16.21,9.26,30.69,22.68,40.49,10.67,7.8,26.3,8.18,36,1.29Zm-3.61-135.68c-1.39.06-3.74,0-6.04.29-7.51.95-11.29,4.73-11.76,11.23-.21,2.86.63,4.18,3.68,4.53,24.18,2.77,45.14,11.93,60.85,31.22,1.6,1.97,2.64,2.57,4.35,0,2.02-3.03,4.36-5.88,6.82-8.58,2.74-3.02,4.07-5.78,1.04-9.53-1.63-2.02-2-4.89.53-6.67,2.73-1.92,5.11-.3,6.94,1.83.82.95,1.42,2.31,1.61,3.56.42,2.68,1.43,2.37,3.26,1.16,12.41-8.19,25.96-13.35,40.79-14.85,2.93-.3,3.51-1.78,3.57-4.24.16-6.9-4.41-11.41-12.02-11.71-10.94-.43-20.83,3.53-30.77,7.32-7.04,2.69-13.37,6.65-19.69,10.66-2.95,1.87-6.59,3.45-8.82-.16-2.31-3.74,1.48-5.47,4.12-7.14,2.66-1.69,5.41-3.27,8.08-4.95,1.19-.75,2.29-1.72.83-3.15-5.18-5.06-9.41-11.33-16.98-13.41-5.16-1.41-9.61-.21-12.05,3.47-1.17,1.76-1.85,3.5,0,5.37,1.73,1.74,3.98,3.54,1.9,6.36-1.98,2.67-4.63,1.88-7.26,1.08-7.18-2.19-14.52-3.53-22.98-3.71Zm-10.51,178.3c7.12-2.96,12.66-7.5,18.83-10.93,11.2-6.23,23.28-10.5,34.93-15.71,5.81-2.6,9.17-7.29,12.89-12.33-2.83-1.2-5.28-1.02-7.76-.88-9.1.53-18.22,3.05-27.26,1.32-5.69-1.09-9.56.43-13.82,3.81-11.13,8.82-16.16,20.5-17.8,34.71Zm161.3-84.75c-8.94,5.04-17.58,9.9-26.2,14.8-.4.23-.64.75-.91,1.16-5.67,8.41-12.71,15.33-21.72,20.16-.77.41-1.98.62-1.56,2.08.79,2.76,12.7,9,15.77,8.22,18.98-4.85,34.65-25.55,34.62-46.42Zm-26.94,62.81c-11.53-6.45-23.2-10.61-31.24-20.25-1.07-1.28-2.17-.84-3.55-.39-6.5,2.11-13.17,3.52-20.05,3.43-2.59-.03-3.76,1.23-4.81,3.43-2.52,5.32,1.04,7.71,4.61,9.95,17.25,10.85,35.39,10.31,55.03,3.82Zm34.24,65.73c-.9,0-1.59.13-2.21-.02-8.38-2.05-16.82-3.91-25.11-6.3-3.72-1.08-3.88.11-3.26,3.1,1.25,6,2.44,12.02,3.46,18.07.42,2.49,1.88,1.67,3.3,1.48,10.49-1.41,19.67-5.72,27.92-12.27,4.55-3.61,4.84-5.3,1.49-9.94-4.55-6.31-10.21-11.5-16.9-15.26-9.99-5.61-8.87-5.73-16.47,3.24-1.96,2.32-1.93,3.43,1.38,4.19,5.98,1.37,11.97,2.87,17.76,4.86,4.03,1.39,9.97,1.41,8.63,8.84Zm-194.62,3.23c-5.04-1.83-9.99-3.23-14.58-5.4-4.94-2.33-7.73-1.58-10.2,3.63-3.4,7.2-10.01,12.08-15.13,18.09,6.64,5.79,14.63,7.63,22.39,10.05,1.67.52,2.54-.09,3.12-1.49,3.65-8.79,9.4-16.39,14.4-24.88Zm-32.12-18.39c2.02.5,3.3.28,2.43-2.36-.88-2.68-1.57-5.42-2.28-8.15-.32-1.22-.78-2.43-2.25-2.06-8.78,2.23-19.06,1.27-24.24,11.26-.33.63-.82.93-1.6.84-3.01-.33-2.32,1.72-1.86,3.23,2.79,9.16,7.1,17.52,13.47,24.74.86.97,1.58,2.22,3.15.69,5.12-4.99,10.2-9.98,13.82-16.27,1.47-2.56,1.54-3.8-1.82-4.82-6.38-1.94-12.97-2.88-19.37-4.64-1.53-.42-3.97-.43-4.04-2.21-.08-2.17,2.37-2.92,4.13-3.75,1.44-.68,2.91-.1,4.38.22,5.35,1.14,10.72,2.2,16.08,3.29Zm195.72,30.46c-3.34.35-3.95-2.13-4.66-4.21-1.78-5.17-3.26-10.47-3.17-15.99.05-3.25-1.24-4.29-4.37-4.38-7.15-.2-14.24.16-21.34,1-2.16.25-2.9.72-2.09,3.06,3.99,11.52,23.31,22.97,35.63,20.52Zm-164.52,15.93c9.14-1.3,18.59-2.89,26.33-9.42,2.59-2.19,2.85-4.02-.57-5.78-5.01-2.58-9.96-5.29-14.79-8.17-2.37-1.41-3.19-.12-4.21,1.57-3.35,5.53-6.77,11.01-10.1,16.55-.81,1.35-2.72,2.63-1.72,4.33.95,1.62,3.05.49,5.07.93Zm3.08-41.29c-.52-2.93-.91-5.89-1.6-8.78-.46-1.9-1.13-3.72-3.36-4.57-6.07-2.32-12.22-4.18-18.77-4.59-2.5-.16-3.23.33-2.6,2.98,2.98,12.56,2.92,12.57,15.08,16.62,2.04.68,4.18,1.19,6.09,2.14,4.39,2.18,5.69.66,5.15-3.79Zm163.82-17.77c-11.27-2.74-28.51,3.05-36.04,12.18,4.86-.45,9.58-1.86,13.9-1.09,9.81,1.76,16.81-1.17,21.43-9.93.15-.28.34-.55.72-1.16Zm-156.49,10.7c.62,5.39,1.47,10,.32,14.62-.21.83-.08,1.75.75,2.19,5.86,3.08,11.75,6.11,18.47,9.59-2.92-12.13-8.87-20.44-19.54-26.4ZM180.11,19.07c0-7.32-5.14-11.42-10.25-10.53-5.03.87-5.54,2.09-2.72,6.15,1.03,1.48,1.81,3.14,2.8,4.65.85,1.28.55,4.46,3.18,3.09,2.61-1.36,6.91-1.11,6.99-3.36Z"/>
</svg>